<?xml version="1.0" standalone="no"?>
<!DOCTYPE svg PUBLIC "-//W3C//DTD SVG 20010904//EN"
 "http://www.w3.org/TR/2001/REC-SVG-20010904/DTD/svg10.dtd">
<svg version="1.0" xmlns="http://www.w3.org/2000/svg"
 width="600.000000pt" height="600.000000pt" viewBox="0 0 600.000000 600.000000"
 preserveAspectRatio="xMidYMid meet">
<g transform="translate(0.000000,600.000000) scale(0.100000,-0.100000)"
fill="#000000" stroke="none">
<path d="M4099 4728 c-19 -51 -35 -96 -37 -99 -2 -4 18 -9 43 -11 l46 -3 -7
100 c-3 55 -8 101 -9 103 -1 1 -17 -39 -36 -90z"/>
<path d="M3899 4703 c8 -54 15 -99 16 -100 1 -2 20 3 43 10 l41 12 -39 59
c-21 32 -44 71 -50 87 -23 53 -26 30 -11 -68z"/>
<path d="M4288 4665 l-66 -71 42 -19 43 -20 27 89 c15 48 26 89 24 90 -2 2
-33 -29 -70 -69z"/>
<path d="M3234 4685 c-42 -19 -91 -76 -103 -122 -15 -52 -14 -89 4 -156 8 -32
15 -69 15 -82 0 -36 -21 -77 -37 -71 -42 16 -157 28 -227 23 -147 -10 -356
-92 -498 -194 -101 -73 -112 -93 -98 -175 37 -202 170 -465 269 -530 41 -28
85 -23 114 12 32 38 42 81 27 125 -16 48 -51 72 -115 80 l-54 7 -5 42 c-3 22
-7 91 -9 153 l-5 112 72 26 c44 17 104 29 158 34 l87 7 25 -66 c69 -187 58
-445 -24 -560 -12 -16 -19 -30 -16 -30 2 0 26 13 53 29 26 15 97 55 156 87
175 95 261 195 302 355 22 83 16 263 -13 362 -20 70 -19 75 12 52 26 -20 99
-29 124 -16 11 6 31 38 44 71 12 33 30 62 39 65 13 4 15 22 11 123 -6 155 -28
200 -115 237 -44 18 -150 18 -193 0z m179 -37 c15 -6 27 -14 27 -19 0 -5 7 -9
15 -9 8 0 15 -7 15 -16 0 -8 4 -12 10 -9 5 3 7 0 4 -8 -3 -8 -1 -18 5 -22 17
-10 14 -220 -3 -234 -7 -6 -21 -31 -30 -56 -10 -24 -25 -46 -34 -49 -22 -6
-54 -2 -71 9 -10 6 -12 4 -6 -6 6 -11 5 -12 -6 -1 -7 6 -23 12 -35 12 -38 0
-44 -47 -18 -137 21 -72 24 -258 4 -288 -4 -5 -7 -19 -7 -30 -3 -59 -101 -212
-129 -201 -7 3 -10 -2 -8 -12 3 -12 -11 -26 -41 -44 -25 -15 -48 -27 -52 -27
-3 0 -9 -3 -12 -8 -9 -14 -81 -56 -81 -48 0 4 -7 2 -15 -5 -12 -10 -19 -10
-27 -2 -7 7 -8 12 -2 12 5 0 10 8 11 18 1 9 4 35 8 57 28 174 -40 463 -113
482 -21 5 -72 1 -162 -11 -53 -8 -116 -30 -148 -54 l-33 -24 2 -141 c1 -78 6
-152 10 -165 12 -30 35 -54 51 -51 26 5 87 -13 101 -29 15 -16 20 -45 18 -88
-1 -20 -37 -44 -66 -44 -21 0 -109 93 -98 104 4 3 1 6 -5 6 -6 0 -34 48 -63
107 -49 102 -81 195 -99 292 -9 49 4 101 25 101 8 0 20 8 27 18 7 9 33 30 58
46 25 16 58 38 73 49 16 10 34 20 40 21 7 2 26 9 42 16 172 72 345 98 460 69
55 -14 90 -6 111 26 20 31 27 97 13 132 -22 57 -22 138 -1 187 21 47 75 91
100 81 7 -3 10 -1 7 5 -7 11 89 3 128 -12z"/>
<path d="M3700 4676 c0 -2 16 -30 35 -62 19 -33 38 -65 43 -73 7 -12 14 -10
41 10 33 24 33 24 11 39 -11 8 -43 32 -70 53 -46 35 -60 42 -60 33z"/>
<path d="M4526 4581 c-3 -5 -36 -21 -73 -37 -38 -15 -71 -30 -75 -34 -5 -3 5
-21 20 -39 l28 -34 23 29 c12 16 40 48 62 71 21 23 39 44 39 47 0 9 -18 7 -24
-3z"/>
<path d="M3927 4541 c-32 -10 -83 -39 -115 -63 l-57 -43 75 -6 c85 -7 139 -30
200 -85 48 -44 100 -144 100 -194 0 -35 2 -37 48 -48 26 -7 84 -28 129 -46
l82 -33 18 46 c13 33 18 74 18 141 0 83 -4 101 -27 146 -37 71 -103 135 -173
169 -78 38 -209 45 -298 16z m235 -31 c23 -7 55 -21 69 -31 15 -10 32 -19 37
-19 10 0 26 -29 24 -42 -1 -4 4 -5 11 -2 8 3 21 -10 32 -30 10 -19 23 -33 27
-30 13 8 9 -11 -4 -25 -8 -9 -9 -11 -1 -7 17 9 33 -48 33 -119 0 -62 -15 -125
-30 -125 -10 0 -76 24 -125 46 -22 10 -44 17 -48 16 -5 -2 -6 2 -2 8 3 5 2 10
-3 10 -5 0 -14 19 -21 42 -13 43 -38 87 -56 100 -6 5 -6 8 2 8 7 0 0 12 -15
28 -44 44 -124 102 -143 102 -10 0 -25 7 -33 16 -9 8 -20 13 -26 9 -6 -3 -7 1
-4 9 3 9 10 17 15 17 12 2 28 6 34 9 9 4 25 7 46 9 11 0 18 4 16 9 -7 11 115
5 165 -8z"/>
<path d="M4547 4373 c-75 -3 -88 -6 -83 -19 3 -9 9 -27 12 -40 3 -13 7 -24 8
-24 1 0 33 16 72 35 38 19 75 35 82 35 6 0 12 5 12 10 0 6 -3 9 -7 8 -5 -1
-48 -4 -96 -5z"/>
<path d="M3823 4210 c-47 -19 -64 -99 -34 -161 11 -24 26 -51 32 -60 10 -14 2
-30 -49 -96 -34 -44 -62 -85 -62 -91 0 -7 -3 -12 -7 -11 -12 0 -92 105 -120
156 -35 61 -86 108 -150 139 -30 14 -56 24 -58 22 -2 -2 1 -24 7 -48 15 -65
14 -226 -1 -290 -43 -181 -158 -305 -400 -431 -79 -42 -191 -130 -191 -151 0
-5 -16 -29 -36 -51 -32 -38 -78 -125 -143 -273 l-23 -51 -92 -6 c-92 -5 -173
-29 -368 -105 l-77 -30 -43 47 c-84 92 -118 101 -170 43 -40 -44 -164 -289
-177 -347 -11 -55 1 -85 34 -85 18 0 46 19 93 63 37 35 92 75 122 89 124 59
340 78 600 54 l165 -15 54 25 c78 35 169 103 277 207 87 82 94 92 74 99 -33
12 -110 67 -163 117 -51 48 -121 154 -114 174 2 6 11 -1 20 -18 20 -38 99
-115 152 -148 61 -37 280 -136 452 -203 l153 -59 0 -70 c0 -106 18 -158 109
-313 106 -181 122 -232 119 -373 -4 -130 3 -141 95 -159 75 -14 299 -18 381
-6 57 8 106 38 106 66 0 26 -49 58 -106 70 -151 31 -236 113 -287 276 -33 105
-93 373 -112 504 -22 148 -28 162 -102 230 -121 111 -223 181 -442 308 -12 7
-4 35 43 151 32 79 66 176 76 215 13 50 20 66 25 53 9 -21 96 -82 172 -121 65
-32 105 -33 134 -3 55 56 152 316 189 503 16 83 -1 127 -62 154 -47 22 -62 23
-95 10z m84 -49 c55 -29 54 -74 -9 -288 -19 -61 -37 -115 -42 -120 -5 -5 -6
-2 -1 7 5 8 4 12 0 8 -5 -5 -10 -20 -11 -34 -3 -29 -53 -135 -68 -146 -6 -4
-14 -4 -20 -1 -5 3 -6 1 -3 -4 4 -6 -1 -14 -10 -17 -22 -9 -85 13 -77 26 4 6
3 9 -2 6 -13 -8 -95 37 -86 47 4 5 1 5 -6 1 -7 -4 -24 5 -43 23 -17 17 -36 31
-43 31 -24 0 -65 -61 -70 -103 -1 -12 -12 -44 -24 -70 -12 -27 -19 -54 -15
-59 4 -7 1 -8 -6 -4 -8 5 -11 3 -10 -5 2 -14 -21 -75 -42 -112 -6 -10 -12 -31
-14 -45 -2 -15 -6 -37 -9 -50 -3 -12 -1 -20 4 -17 6 3 23 -8 40 -25 16 -17 30
-28 30 -25 0 4 13 -3 29 -14 16 -12 34 -21 40 -21 6 0 11 -4 11 -9 0 -5 13
-14 29 -19 17 -6 40 -22 52 -36 13 -14 28 -26 34 -26 6 0 22 -10 35 -22 14
-13 26 -22 27 -20 8 7 61 -42 56 -51 -3 -6 -2 -7 4 -4 10 7 101 -75 127 -115
14 -21 28 -95 41 -208 7 -67 109 -483 116 -475 3 2 5 -5 6 -16 3 -29 60 -117
108 -165 33 -33 60 -48 126 -69 105 -34 130 -46 126 -59 -7 -20 -117 -33 -254
-30 -235 4 -251 14 -239 138 7 64 -4 151 -25 201 -7 17 -11 36 -10 44 1 7 -1
11 -6 8 -5 -3 -17 15 -27 39 -10 26 -22 41 -29 37 -6 -4 -8 0 -4 10 3 10 3 17
-2 17 -5 0 -12 12 -16 28 -3 15 -18 39 -32 54 -17 17 -24 34 -20 47 3 11 2 20
-2 19 -19 -2 -31 3 -26 12 3 5 1 19 -6 31 -6 12 -15 63 -19 112 -7 84 -9 93
-38 118 -17 15 -28 30 -24 32 4 2 1 2 -6 0 -8 -2 -28 3 -45 11 -36 15 -213 86
-267 107 -19 8 -39 13 -43 11 -5 -1 -6 2 -3 7 3 5 -4 11 -17 15 -47 11 -167
73 -160 81 5 4 0 5 -9 2 -10 -4 -18 -2 -18 3 0 6 -7 10 -16 10 -8 0 -13 4 -9
9 3 5 -3 12 -12 15 -10 3 -43 30 -74 59 -49 45 -56 55 -48 75 4 12 11 22 14
22 4 0 3 -5 -1 -12 -5 -7 -3 -8 5 -4 7 5 10 15 7 23 -3 8 -2 12 3 9 5 -3 11 0
14 8 3 8 31 26 61 41 34 17 53 32 49 39 -3 6 -3 8 2 4 8 -8 124 51 157 79 9 8
22 12 28 8 6 -3 9 -2 8 3 -2 5 9 21 25 35 15 14 27 24 27 21 0 -8 42 37 81 86
84 108 119 222 119 396 0 73 3 94 14 94 25 0 68 -43 113 -113 60 -94 118 -149
152 -145 14 1 33 -2 41 -7 13 -7 13 -6 2 7 -13 17 0 40 78 138 33 40 35 67 10
117 -26 52 -31 102 -13 121 7 8 11 17 9 21 -8 12 46 6 71 -8z m-1116 -1065 c5
3 9 -3 9 -14 0 -11 10 -35 23 -53 13 -19 21 -41 19 -48 -3 -8 0 -11 7 -7 6 4
11 3 11 -3 0 -5 9 -12 20 -16 11 -3 19 -11 17 -17 -1 -6 8 -17 20 -23 13 -7
20 -14 17 -17 -3 -4 3 -9 14 -12 11 -4 34 -19 51 -34 l30 -27 -70 -67 c-38
-37 -69 -64 -69 -60 0 4 -4 2 -8 -4 -4 -6 -23 -22 -42 -35 -19 -13 -50 -35
-68 -49 -17 -13 -38 -25 -45 -27 -6 -1 -27 -6 -45 -10 -18 -5 -113 -3 -210 4
-125 9 -212 10 -296 3 -65 -6 -121 -12 -125 -14 -3 -2 -22 -7 -41 -10 -59 -9
-98 -24 -130 -46 -16 -12 -30 -19 -30 -15 0 3 -11 -6 -25 -21 -14 -15 -25 -24
-25 -20 0 4 -18 -11 -40 -34 -60 -61 -72 -54 -46 32 8 25 13 49 10 52 -2 3 -1
4 2 1 7 -5 74 123 74 142 0 6 4 13 9 15 4 2 20 23 35 46 15 24 30 41 33 38 4
-3 12 -1 19 5 10 8 17 7 28 -4 8 -8 13 -17 11 -21 -3 -3 -2 -4 1 -2 3 3 30
-15 60 -40 49 -39 83 -57 71 -36 -3 4 7 8 21 9 46 3 66 8 112 30 64 30 213 73
273 79 99 10 117 15 147 44 17 16 30 34 30 39 0 5 4 20 9 33 5 13 10 28 11 33
1 6 10 21 20 35 9 14 21 36 25 50 4 14 17 36 29 49 11 13 15 21 7 16 -9 -5 -7
2 5 17 10 15 21 22 22 17 2 -5 8 -7 13 -3z"/>
<path d="M4488 4178 c-2 -22 -1 -40 2 -41 3 -1 43 1 90 4 47 3 79 6 72 7 -7 1
-46 17 -87 36 l-73 34 -4 -40z"/>
<path d="M2323 4170 c-401 -139 -744 -345 -1011 -608 -119 -117 -196 -214
-268 -335 -189 -320 -180 -596 28 -821 164 -179 406 -286 768 -341 135 -20
570 -33 570 -17 0 8 -23 12 -67 12 -194 0 -515 85 -699 185 -220 120 -357 267
-420 450 -24 69 -28 96 -28 195 0 139 15 203 85 349 85 179 213 336 407 498
203 170 365 276 597 389 160 79 170 90 38 44z m-573 -330 c0 -5 -7 -10 -15
-10 -8 0 -15 -4 -15 -10 0 -5 -7 -10 -16 -10 -8 0 -14 -3 -12 -7 3 -5 -11 -24
-31 -43 -19 -19 -31 -29 -27 -22 4 6 2 12 -3 12 -6 0 -11 -4 -11 -9 0 -18 -70
-82 -83 -75 -6 4 -8 3 -4 -1 4 -5 -10 -27 -31 -49 -94 -97 -114 -121 -128
-148 -8 -15 -19 -28 -24 -28 -5 0 -12 -9 -15 -20 -4 -11 -18 -33 -31 -50 -14
-16 -25 -32 -24 -35 0 -3 -6 -18 -14 -34 -9 -16 -12 -31 -9 -35 4 -3 1 -6 -5
-6 -7 0 -12 -6 -12 -14 0 -8 -5 -16 -11 -18 -6 -2 -11 -16 -11 -31 0 -15 -4
-25 -7 -22 -4 2 -18 -37 -31 -88 -25 -99 -37 -302 -17 -290 6 4 8 -2 4 -16 -3
-13 5 -54 19 -95 14 -39 28 -79 31 -88 3 -10 9 -18 14 -18 5 0 9 -5 9 -11 0
-6 16 -33 35 -59 19 -26 35 -50 35 -53 0 -3 23 -29 51 -57 28 -28 47 -45 43
-39 -4 8 -3 9 4 5 7 -4 12 -14 12 -23 0 -9 3 -14 6 -10 3 3 26 -10 51 -29 24
-19 49 -34 54 -34 6 0 7 -5 3 -12 -5 -7 -2 -9 9 -5 9 3 17 2 19 -2 5 -13 155
-90 162 -84 3 4 6 2 6 -3 0 -5 29 -18 65 -29 37 -11 60 -22 53 -26 -14 -9 -42
-5 -158 23 -46 11 -89 21 -95 22 -23 4 -91 29 -101 38 -7 5 -16 8 -20 7 -24
-4 -44 2 -39 12 4 6 1 9 -6 8 -32 -7 -245 113 -234 131 3 4 -2 11 -11 14 -10
4 -13 2 -8 -7 5 -6 -11 6 -34 28 -25 23 -40 45 -37 54 5 12 3 12 -12 0 -9 -8
-14 -9 -10 -3 4 6 -3 20 -14 30 -23 20 -54 74 -51 87 1 4 -2 7 -7 7 -10 0 -48
99 -57 150 -16 85 -2 208 36 310 36 100 91 210 102 204 4 -3 5 2 2 10 -3 9 -1
16 5 16 6 0 11 7 11 15 0 7 8 19 18 24 9 6 14 11 10 11 -8 0 7 19 50 66 12 14
22 29 22 33 0 19 310 313 326 310 3 -1 22 14 42 32 20 19 33 27 28 19 -4 -8
-1 -7 8 4 9 11 20 15 28 10 7 -4 10 -4 6 1 -8 8 20 33 67 58 36 20 35 19 35 7z"/>
<path d="M4460 4045 c-6 -15 -9 -28 -8 -29 2 -1 29 -14 62 -29 32 -15 60 -26
62 -24 2 2 -21 27 -51 57 l-54 53 -11 -28z"/>
<path d="M4293 3997 c10 -7 46 -30 80 -52 91 -58 246 -217 294 -300 74 -129
87 -175 87 -310 0 -107 -3 -128 -28 -195 -64 -171 -184 -327 -368 -481 -75
-63 -296 -209 -315 -209 -9 0 -12 -7 -9 -17 3 -10 10 -40 16 -68 7 -27 13 -56
15 -62 5 -14 221 93 354 176 410 254 615 553 571 833 -38 249 -244 471 -599
648 -95 47 -139 64 -98 37z m407 -285 c0 16 107 -98 136 -144 16 -27 32 -48
37 -48 4 0 7 -6 7 -14 0 -7 6 -19 14 -25 25 -21 60 -152 60 -231 1 -82 -31
-233 -47 -223 -6 3 -7 1 -4 -4 8 -12 -40 -103 -54 -103 -5 0 -14 -12 -20 -27
-6 -16 -9 -28 -7 -28 1 0 -14 -16 -35 -35 -21 -19 -44 -41 -50 -48 -40 -46
-89 -95 -81 -82 4 8 -8 -1 -28 -20 -46 -44 -71 -65 -89 -74 -39 -19 -58 -33
-53 -38 3 -4 -4 -9 -15 -13 -12 -3 -21 -10 -21 -15 0 -5 -7 -6 -17 -3 -10 4
-14 2 -10 -4 4 -5 -24 -25 -62 -44 -38 -19 -67 -37 -64 -41 4 -7 -12 -12 -30
-9 -4 1 -30 -15 -58 -35 -28 -20 -48 -30 -43 -23 4 7 -3 5 -17 -4 -32 -23 -56
-21 -64 3 -8 26 3 60 19 60 7 0 22 8 34 18 11 9 35 26 53 37 56 34 63 39 119
80 71 51 71 52 130 108 28 26 55 47 61 47 6 0 7 5 3 12 -5 8 0 9 14 6 12 -4
20 -2 17 3 -8 12 25 60 36 53 5 -3 9 -2 8 3 -4 23 2 35 16 29 8 -3 14 -2 14 2
-4 21 2 32 14 26 6 -4 9 -4 5 1 -4 4 8 29 27 55 38 52 105 186 105 210 0 9 5
21 12 28 7 7 9 12 5 12 -4 0 -4 8 2 18 23 44 23 301 0 286 -5 -3 -6 1 -3 9 3
8 1 18 -5 22 -6 3 -11 17 -11 30 0 13 -5 27 -11 30 -6 4 -8 13 -5 20 3 8 1 15
-3 17 -13 5 -71 115 -64 122 4 3 10 1 15 -6 4 -7 8 -10 8 -6z"/>
<path d="M1900 3748 c-320 -221 -484 -406 -560 -634 -59 -179 -36 -363 65
-514 24 -36 71 -92 104 -124 l59 -59 12 43 c6 24 24 68 39 99 l27 57 -47 58
c-100 124 -144 323 -104 476 24 94 85 218 153 313 63 86 197 224 270 278 23
17 42 33 42 35 0 9 -18 1 -60 -28z m-354 -370 c4 -7 3 -8 -4 -4 -8 5 -12 0
-12 -13 0 -12 -5 -21 -11 -21 -5 0 -7 -4 -4 -10 3 -5 1 -10 -6 -10 -7 0 -10
-3 -7 -6 4 -3 -7 -42 -24 -87 -65 -173 -40 -411 54 -514 11 -12 17 -26 14 -32
-4 -5 2 -16 12 -23 38 -27 41 -49 16 -106 -20 -45 -26 -52 -41 -43 -25 13 -73
74 -104 131 -15 27 -29 47 -31 44 -3 -3 -8 2 -12 11 -4 10 -2 14 5 9 6 -3 4 4
-5 17 -8 14 -22 55 -31 93 -15 63 -15 106 -1 208 5 33 47 161 55 168 3 3 16
26 29 53 14 27 28 44 34 41 6 -4 8 -2 4 4 -3 5 4 23 17 39 13 15 26 36 30 46
7 20 13 21 23 5z"/>
<path d="M5094 3355 c44 -260 -26 -463 -233 -679 -150 -155 -383 -311 -632
-423 -71 -31 -129 -62 -129 -69 0 -18 56 -89 87 -112 15 -11 57 -29 93 -40
l65 -20 125 63 c373 188 612 429 691 700 27 93 35 243 19 342 -11 70 -71 258
-87 272 -3 3 -3 -12 1 -34z m58 -355 c1 -25 -2 -58 -5 -75 -4 -16 -9 -53 -11
-82 -3 -28 -13 -69 -22 -90 -9 -21 -16 -41 -16 -45 2 -9 -73 -142 -96 -170 -9
-11 -29 -33 -44 -49 -14 -15 -25 -29 -23 -31 1 -2 -16 -21 -38 -43 -23 -22
-38 -34 -33 -28 5 9 2 11 -8 7 -9 -3 -14 -9 -11 -13 2 -4 -5 -13 -15 -21 -10
-8 -16 -18 -13 -23 3 -6 1 -7 -4 -4 -6 4 -18 -5 -27 -18 -9 -14 -21 -23 -26
-20 -5 3 -17 -3 -27 -13 -10 -11 -45 -36 -78 -57 -33 -21 -63 -42 -66 -48 -4
-5 -12 -6 -18 -3 -6 4 -11 3 -11 -1 0 -15 -59 -45 -73 -37 -6 4 -9 4 -5 -1 10
-11 -142 -86 -156 -77 -6 3 -15 7 -21 7 -24 1 -75 17 -75 24 0 3 -16 15 -35
25 -25 14 -32 22 -23 28 9 5 10 8 1 8 -6 0 -11 9 -10 20 1 18 12 24 44 23 7
-1 11 2 9 6 -3 3 27 19 65 35 38 16 69 33 69 38 0 6 8 7 17 4 10 -4 14 -4 10
0 -7 7 71 49 86 46 4 -1 10 5 13 13 4 8 12 15 19 15 6 0 20 9 30 20 9 10 20
19 24 18 15 -3 51 19 121 73 125 97 132 103 158 131 14 15 29 25 33 22 5 -3 9
-1 9 5 0 5 25 35 56 66 31 32 50 54 42 50 -7 -3 -5 0 5 8 9 8 17 19 17 26 0 6
4 11 10 11 5 0 12 11 16 25 3 14 10 25 14 25 5 0 14 16 21 34 7 19 17 32 22
29 6 -3 7 -1 3 6 -4 6 0 18 8 27 9 8 16 26 16 40 0 13 4 24 8 24 4 0 8 8 9 18
1 9 5 33 9 52 7 34 7 34 16 10 5 -14 10 -45 10 -70z"/>
<path d="M1934 2389 c-22 -11 -60 -39 -83 -63 l-43 -43 86 -31 c107 -39 212
-66 341 -88 140 -24 445 -24 630 0 129 17 446 89 505 115 29 13 20 12 -160
-16 -75 -11 -174 -16 -345 -17 -263 0 -404 14 -580 59 -105 26 -262 82 -271
96 -8 14 -35 10 -80 -12z m108 -44 c16 -4 26 -10 24 -14 -2 -3 6 -7 19 -7 12
-1 37 -9 56 -17 19 -9 45 -19 59 -23 25 -8 32 -10 78 -13 13 0 21 -4 19 -8 -3
-5 5 -8 16 -9 12 -1 40 -4 62 -8 117 -20 157 -26 230 -31 157 -13 122 -32 -60
-34 -140 -1 -244 11 -470 53 -40 7 -160 50 -171 61 -9 8 -9 15 0 26 26 36 69
43 138 24z"/>
<path d="M3590 2231 c-30 -18 -257 -93 -400 -132 -290 -80 -507 -114 -785
-126 -228 -9 -160 -22 125 -22 376 -1 733 51 1088 159 80 24 79 23 37 89 -26
42 -38 47 -65 32z m30 -56 c9 -11 9 -15 1 -15 -7 0 -10 -4 -7 -8 3 -5 0 -9 -7
-10 -31 -2 -77 -11 -87 -17 -19 -12 -122 -35 -131 -29 -5 3 -9 1 -9 -5 0 -10
-28 -17 -100 -25 -31 -4 -39 -3 -25 3 40 18 60 24 74 22 8 -1 10 2 6 10 -5 7
-3 10 5 7 7 -2 65 15 129 38 134 49 135 49 151 29z"/>
<path d="M1019 2186 c20 -24 172 -116 282 -172 371 -186 787 -270 1400 -281
378 -7 594 7 902 59 121 20 127 23 120 42 -5 12 -8 65 -8 119 0 53 -3 97 -7
97 -4 0 -17 -4 -31 -9 -107 -41 -479 -103 -727 -122 -283 -21 -821 0 -1138 46
-294 43 -563 116 -727 198 -44 22 -73 32 -66 23z m2651 -266 c0 -79 -7 -87
-82 -96 -24 -3 -83 -11 -133 -19 -49 -7 -135 -17 -190 -20 -55 -4 -113 -9
-130 -11 -67 -9 -608 -4 -720 6 -66 7 -142 13 -170 15 -27 2 -63 6 -80 9 -16
3 -61 10 -100 15 -38 6 -122 22 -185 36 -63 15 -123 26 -133 26 -9 0 -15 4
-12 8 2 5 -1 9 -8 8 -32 -1 -48 4 -42 13 3 5 0 7 -8 4 -16 -6 -155 40 -172 57
-7 7 -5 9 5 5 8 -3 49 -10 90 -16 41 -5 85 -12 98 -15 63 -14 246 -36 467 -56
149 -14 723 -18 835 -6 96 10 288 35 364 47 32 5 63 7 69 3 6 -3 7 -2 4 4 -4
6 5 10 21 11 32 2 51 6 112 26 25 8 57 15 73 15 27 1 27 1 27 -69z"/>
</g>
</svg>
